<?xml version="1.0" encoding="UTF-8"?>
<svg xmlns="http://www.w3.org/2000/svg" version="1.1" viewBox="0 0 417.7 512">
  <!-- Generator: Adobe Illustrator 28.7.1, SVG Export Plug-In . SVG Version: 1.2.0 Build 142)  -->
  <g>
    <g id="Calque_1">
      <g>
        <path d="M416.4,113.8c-3.4-11.1-7.1-22.2-11.1-33.1-5.1-14.1-16.2-21.6-31.4-21.7-29.1,0-58.3,0-87.5,0h-6c0-9.7,0-19,0-28.3,0-10.4-3.3-19.4-12.1-25.5-3.2-2.2-7-3.5-10.6-5.2h-97c-5.5,3.2-11.6,5.8-16.3,9.9-6,5.2-7.1,12.9-7.1,20.6,0,9.3,0,18.6,0,28.4h-5.8c-28.8,0-57.7,0-86.5,0-17.5,0-27.9,7.6-33.5,24.3-3.3,9.9-6.8,19.8-9.9,29.8-5.9,18.7,5.6,34.4,25.2,34.8,3.2,0,6.3,0,10,0,.6,6.8,1.3,13.4,1.8,19.9,4,49,8,97.9,11.9,146.9,3.5,43.3,6.9,86.7,10.4,130,.8,9.3,1.3,18.6,2.8,27.8,3.4,20.8,17.6,34.9,38.3,38.7.6.1,1.2.5,1.8.7h215c11.2-2.2,21.1-6.5,29.1-15.1,8.9-9.6,11.8-21.2,12.8-33.8,4.9-61.6,10-123.2,14.9-184.7,3.4-42.5,6.8-85,10.2-127.5,0-.8.2-1.6.4-3,2,0,3.7,0,5.5,0,18.8-.7,30.1-16.1,24.7-34.1ZM167.7,30.3h82.4v28.4h-82.4v-28.4ZM353.4,180c-2.5,31.4-5.1,62.7-7.6,94.1-2.9,35.2-5.7,70.4-8.6,105.6-2.1,26.6-4.3,53.1-6.4,79.7-.2,2.8-.4,5.6-.9,8.4-1.3,8.2-7.4,13.8-15.6,14.1-4.7.2-9.3,0-14,0H113.3c-14.2,0-19.6-5-20.7-19-4.8-59.6-9.8-119.2-14.6-178.8-3.7-45.1-7.2-90.3-10.9-136.1h288.8c-.8,10.8-1.6,21.3-2.5,31.9ZM31.6,117.6c3-8.9,5.7-17.5,8.8-25.9.4-1.2,2.2-2.1,3.5-2.6,1-.4,2.3,0,3.5,0,107.7,0,215.3,0,323-.1,4.9,0,7,1.5,8.3,6.1,2.1,7.5,4.8,14.8,7.3,22.6H31.6Z"/>
        <path d="M311.9,181.1c-.2,9.7-.8,19.3-1.3,29-1.8,35.1-3.7,70.2-5.6,105.2-2.1,41.2-4.3,82.5-6.4,123.7-.2,4.2-.4,8.3-.8,12.5-.7,8.7-7.2,14.7-15.4,14.5-8.3-.3-14.6-7.1-14.5-16,.1-6.8.7-13.6,1-20.5,1.9-35.1,3.8-70.2,5.6-105.2,2.5-47.4,4.8-94.8,7.3-142.2.6-10.5,6.6-16.6,15.7-16.3,8.3.2,14.5,6.6,14.3,15.4Z"/>
        <path d="M130,464.9c-5.8-2.2-9.2-6.6-9.6-12.8-1-15-1.8-29.9-2.7-44.9-2.9-53.5-5.9-107.1-8.8-160.6-1.2-21.6-2.4-43.2-3.3-64.9-.4-10.3,7.3-17.1,17.2-15.8,7.2,1,12.2,6.8,12.7,15,1.1,18.5,2,36.9,3,55.4,1.4,26.6,2.8,53.2,4.3,79.8h0c2.4,43.9,4.7,87.8,7.1,131.7.7,12.9-9.1,21.3-20,17.1Z"/>
        <path d="M223.9,316.1c0,44.1,0,88.3,0,132.4,0,9-3.3,14.2-10.1,16.5-8.3,2.8-17-1.8-19.1-10.2-.6-2.2-.7-4.6-.7-6.9,0-88.1,0-176.2,0-264.4,0-11.3,6-18.1,15.6-17.8,7.5.2,13.6,5.9,14.2,13.4.2,2,.1,4,.1,6,0,43.6,0,87.3,0,130.9Z"/>
      </g>
    </g>
  </g>
</svg>