<?xml version="1.0" encoding="UTF-8"?>
<svg xmlns="http://www.w3.org/2000/svg" version="1.1" viewBox="0 0 320.1 287.9">
  <defs>
    <style>
      .cls-1 {
        fill: #2b87da;
      }
    </style>
  </defs>
  <!-- Generator: Adobe Illustrator 28.7.0, SVG Export Plug-In . SVG Version: 1.2.0 Build 136)  -->
  <g>
    <g id="Calque_1">
      <g>
        <path class="cls-1" d="M273,112.9c-1.2-.7-1.2-.8-1.2-2,0-20.5,0-27.2,0-31.7,0-6.2,0-7.7.2-36.7.1-11.6-4.2-22.4-12.1-30.3-7.9-7.9-18.6-12.2-30.3-12.2s-.2,0-.3,0c-44.1.3-89,.3-132.5.2-18.2,0-36.3,0-54.5,0C17,.2,0,17.2,0,42.6,0,65.4,0,65.8,0,67.5c0,1.5,0,4.1,0,24.4v43.2C0,163.9,0,192.7,0,221.5c0,25.4,17,42.5,42.3,42.5h22c31.9,0,64.8,0,97.2,0,1.4,0,2.3.3,3.5,1.3,18.1,15.1,38.3,22.6,60.3,22.6s10.9-.5,16.5-1.4c39.4-6.4,69.6-37,77-78,6.6-36.5-12.6-76.7-45.8-95.6ZM140,232H59.8c-6.3,0-12.6,0-18.9,0-5.7,0-8.9-3.2-8.9-8.9,0-87.3,0-94.7,0-182,0-5.8,3.1-8.9,8.8-8.9,31.7,0,63.5,0,95.2,0s63.5,0,95.2,0c5.4,0,8.7,3.2,8.7,8.7v22.9q0,7.6,0,13.1c0,3.9,0,10.5,0,24.3-23.2-3.6-46.8,1.6-66.6,14.9-20.2,13.6-34.1,34-39.2,57.5-4.3,20-2.4,39.6,5.8,58.4ZM164,194.1c0-34.8,27.5-62,62.5-62h.1c33.8,0,61.3,28,61.3,62.3,0,16.4-6.5,31.8-18.3,43.5-11.7,11.7-27.2,18.1-43.5,18.1h-.2c-34.3,0-62.1-27.9-62-61.9Z"/>
        <path class="cls-1" d="M141.2,106.1c0,0,.2,0,.2,0h1.2s0,0,0,0c.4,0,.9,0,1.4,0h.3c1.5,0,3.2,0,5-.4,8-1.8,13.4-9.3,12.5-17.4-.9-8.2-7.8-14.2-16.4-14.2-28.5,0-31.2,0-45.1,0h-24c-1.6,0-3,.2-4.3.5-.5.1-1,.3-1.4.4-7,2.5-11.4,9.3-10.6,16.8,0,0,0,0,0,0,0,0,0,0,0,0,0,0,0,.2,0,.3,0,.4.1.8.2,1.2,0,.1,0,.3.1.4,0,.3.2.7.3,1,0,.2.1.4.2.6,0,.3.2.5.3.8.1.3.2.5.4.8,0,.2.2.3.2.5.2.3.4.7.6,1,0,0,0,.2.1.3.5.8,1.1,1.5,1.7,2.2,0,0,0,0,0,0,2,2.1,4.5,3.6,7.3,4.5,0,0,0,0,0,0,.3,0,.6.2,1,.2.2,0,.3,0,.5.1.1,0,.2,0,.4,0,.9.1,1.7.2,2.7.2,8.6,0,17.4,0,26,0s9.3,0,13.9,0c6.7,0,13.3,0,20,0h5.3Z"/>
        <path class="cls-1" d="M100,154.1c-8-.1-16.1-.1-24,0-8.8.1-15.8,7-16,15.7-.1,8.9,6.9,16,15.9,16.2,2.8,0,5.7,0,8.4,0,2.4,0,4.9,0,7.3,0,1.2,0,2.5,0,3.7,0s3.1,0,4.7,0c9.1-.2,16.1-7.3,15.9-16.2-.1-8.7-7.1-15.6-16-15.7Z"/>
        <path class="cls-1" d="M232.8,233.6c2-2.7,4-5.4,6.1-8.1.9-1.2,1.8-2.5,2.8-3.7,1.5-2,3.1-4.1,4.6-6.2,2.5-3.4,5.2-6.9,7.8-10.5,3.3-4.4,6.7-8.9,10.2-13.7,1.4-1.9,2.9-3.8,4.3-5.8,2.9-3.9,3.9-8.3,2.8-12.8-1.5-6.6-5.8-11-12.2-12.3-6.5-1.4-12.4.9-16.5,6.4l-2.7,3.7c-7.2,9.6-14.6,19.4-21.8,29.2-3.7-3.9-7.4-7.5-10.8-10.7-6.7-6.4-16.4-6.4-22.7,0-6.3,6.4-6.2,16.1.2,22.7,5,5.1,10.2,10.3,15.2,15.3,2.7,2.7,5.4,5.4,8.1,8.1,2.7,2.7,6,4.3,9.8,4.8.6,0,1.1.1,1.7.2h.2s.2,0,.2,0c5.2-.3,9.5-2.5,12.5-6.4Z"/>
      </g>
    </g>
  </g>
</svg>