<?xml version="1.0" encoding="utf-8"?>
<!-- Generator: Adobe Illustrator 28.7.0, SVG Export Plug-In . SVG Version: 9.03 Build 54978)  -->
<svg version="1.1" id="Calque_1" xmlns="http://www.w3.org/2000/svg" xmlns:xlink="http://www.w3.org/1999/xlink" x="0px" y="0px"
	 viewBox="0 0 449.3 341.8" style="enable-background:new 0 0 449.3 341.8;height:16px;" xml:space="preserve">
<g>
	<path d="M327.4,0L327.4,0c-6.4,0.1-12.8,0.1-19.2,0H327.4z"/>
	<path d="M448.4,293.8c-7.5-36.6-26.9-65.7-57.4-87.4c-6.5-4.7-13.7-8.3-20.8-12.2c29.3-35.6,22.7-81-4.4-107.1
		c-28.4-27.4-71-29.8-102.1-5.8c-15.3,11.8-25,27.4-28.7,46.4c-4.8,24.9,1.8,47,17.6,66.4c-40.5,20.4-66.6,51.9-77.5,95.8
		c-4.9,19.7,2.6,37.7,20.4,47.2c3.7,2,7.9,3.1,11.9,4.5h206.9c0.6-0.3,1.1-0.6,1.7-0.8C438.3,336.8,453,316,448.4,293.8z
		 M311.3,104.9c20.6,0,37.9,17.1,38,37.8c0.1,20.5-17,37.9-37.7,38.1c-20.7,0.3-38.3-17.3-38.2-38
		C273.5,122.1,290.7,105,311.3,104.9z M405.3,301.9c-31.3-0.1-62.6,0-93.9,0c-31.1,0-62.3-0.1-93.4,0.1c-3.9,0-4.5-0.7-3.6-4.5
		c11.9-49.1,61-82.3,111-74.8c41,6.2,73.9,36.1,83.2,75.3C409.4,301.6,408.5,301.9,405.3,301.9z"/>
	<path d="M144.4,99.9c20.8,0,21.6-0.1,42.4,0c7.9,0,14.1,3.4,18,10.5c3.7,6.7,3.4,13.5-0.5,19.9c-3.7,6.1-9.4,9.5-16.6,9.5
		c-42.3,0.1-44.6,0.2-86.9,0c-11.1,0-19.5-9.1-19.5-19.9c0-11.1,8.6-19.8,20.1-19.9C122.5,99.8,123.5,99.9,144.4,99.9z"/>
	<path d="M123.5,179.9c13.8,0,27.6-0.2,41.5,0.1c9.8,0.2,17.4,7,19.2,16.5c1.7,8.7-3.3,17.9-11.6,21.6c-2.9,1.3-6,1.8-9.2,1.8
		c-27,0-33.9,0.1-60.9,0c-12.2,0-21-8.6-20.9-20c0-11.4,8.8-19.8,21.1-19.9C116.2,179.8,109.8,179.9,123.5,179.9
		C123.5,179.9,123.5,179.9,123.5,179.9z"/>
	<path d="M367.7,33.7c-2.8,3.2-6.2,6.3-10.5,6.3h-30.6c-9.8,0-19.6,0-29.4,0c-71.7-0.1-143.3-0.1-215,0.1
		C58,40.1,41.5,57.9,41.5,82.9c0,115.2,0,60.5,0,175.8c0,4.5,0.2,9,1.5,13.4c5.3,18.3,20.1,29.6,39.5,29.8c15,0.2,30-0.1,45,0.1
		c8.6,0.1,15,4.3,18.3,12.3c3.3,7.8,1.6,15-3.8,21.3c-2.8,3.2-6.2,6.3-10.5,6.3h-60c-24.1-1.8-42.1-14.1-56.2-32.9
		C5.1,295.3,0.1,279.6,0.1,262.7C0,144.8,0,197,0,79.1C0,44.8,24.1,12.5,56.8,2.5C62,0.9,67.3,1.1,72.5,0h235.7
		c6.4,0.1,12.8,0.1,19.2,0c8.6,0,17.2,0,25.8,0.1c8.6,0.1,15,4.3,18.3,12.3C374.8,20.2,373.1,27.4,367.7,33.7z"/>
	<path d="M326.5,40h-29.4l0,0C307,40,316.8,40,326.5,40z"/>
</g>
</svg>